<?xml version="1.0" encoding="utf-8"?>
<!-- Generator: Adobe Illustrator 24.3.0, SVG Export Plug-In . SVG Version: 6.00 Build 0)  -->
<svg version="1.1" id="レイヤー_1" xmlns="http://www.w3.org/2000/svg" xmlns:xlink="http://www.w3.org/1999/xlink" x="0px"
	 y="0px" viewBox="0 0 120 60" enable-background="new 0 0 120 60" xml:space="preserve">
<g>
	<path fill="#F578C7" d="M120,35c0,13.75-11.25,25-25,25H25C11.25,60,0,48.75,0,35V25C0,11.25,11.25,0,25,0h70
		c13.75,0,25,11.25,25,25V35z"/>
</g>
<g>
	<path fill="#FFFFFF" d="M30.6,32.82l0.26,14.5h-5.33l0.26-14.5V19.1l-0.11-5.55l0.26-0.26l4.77,0.11h3.63l2.26-0.11l1.74,1.89
		c0.18,0.18,0.26,0.55,0.15,1.18c-0.67,3.29-1.52,6.14-2.59,9.36c2.07,3.29,2.81,5.33,2.81,8.55c0,3.96-2.37,6.11-5.66,6.11
		c-0.56,0-0.7-0.11-0.89-0.55l-1.33-4.18c2.52,0.04,3.03-0.37,3.03-2.33c0-1.44-0.33-3.4-2.52-6.96c-0.07-0.15-0.11-0.3-0.11-0.44
		c0-0.15,0.04-0.3,0.07-0.44c0.74-2.59,1.41-4.96,1.81-7.47H30.6V32.82z M49.66,43c0,0.67-0.15,0.89-0.78,1.11
		c-3.07,1.11-7.36,2.26-12.03,3.29l-0.33-0.18l-1.48-4.26l0.19-0.33c1.41-0.22,2.77-0.44,4.14-0.7v-22.9l-0.11-4.77l0.26-0.22
		l4.81,0.11h7.7l4.74-0.11l0.3,0.3l-0.11,4.51v6.48l0.11,5.29l-0.33,0.26l-4.33-0.11H51.1c0.33,1.37,0.78,2.7,1.33,4
		c1.22-1.11,2.29-2.29,3.26-3.48h0.37l3.37,3.11l-0.04,0.37c-1.63,1.41-3.22,2.63-4.85,3.66c1.41,1.78,3.26,3.22,5.51,4.55
		l-3.22,3.55c-0.3,0.33-0.48,0.48-0.67,0.48s-0.41-0.11-0.67-0.33c-2.41-1.74-4.37-4.11-5.85-6.73V43z M51.99,18.13h-7.73v2.26h7.73
		V18.13z M44.25,24.31v2.4h7.73v-2.4H44.25z M49.06,38.78c-1.22-2.44-2.07-5.18-2.7-8.03h-2.11v10.14c1.74-0.41,3.48-0.85,5.14-1.44
		L49.06,38.78z"/>
	<path fill="#FFFFFF" d="M78.63,27.24h-2.66l-4.85,0.11l-0.26-0.19v-4.18l0.22-0.26l4.88,0.11h9.95l4.77-0.11l0.3,0.22v4.18
		l-0.19,0.22l-4.88-0.11h-1.96v4.03h3.85l4.77-0.11l0.3,0.22v4.33l-0.19,0.22l-4.88-0.11h-3.85v5.55c1.07,0.04,2.29,0.07,3.63,0.07
		c2.74,0,6.11-0.07,10.77-0.44l-2.07,4.96c-0.15,0.33-0.26,0.33-0.67,0.37c-3.07,0.15-6.51,0.15-9.4,0.11
		c-2.4-0.04-5.07-0.37-7.22-0.85c-2.48-0.56-4.74-1.85-6.51-3.63c-1.11,1.92-2.48,3.63-4.22,5.03c-0.26,0.22-0.44,0.3-0.63,0.3
		c-0.22,0-0.41-0.07-0.63-0.26l-3.63-2.85c4.88-3.77,6.81-8.21,7.14-14.21l0.33-0.22l4.59,0.85l0.3,0.3
		c-0.19,2.26-0.63,4.55-1.37,6.77c1.18,1.22,2.63,2.26,4.26,2.81V27.24z M78.07,12.36l0.26-0.26h4.96l0.26,0.26v3.7h8.21l5.14-0.11
		l0.3,0.26l-0.11,2.81v1.07l0.19,5.18h-5.37V20.5H69.97v4.77H64.6l0.19-4.81v-1.11l-0.11-3.15l0.33-0.26l6.03,0.11h7.03V12.36z"/>
</g>
<g>
</g>
<g>
</g>
<g>
</g>
<g>
</g>
<g>
</g>
<g>
</g>
<g>
</g>
<g>
</g>
<g>
</g>
<g>
</g>
<g>
</g>
<g>
</g>
<g>
</g>
<g>
</g>
<g>
</g>
</svg>
