<?xml version="1.0" encoding="utf-8"?>
<!-- Generator: Adobe Illustrator 24.3.0, SVG Export Plug-In . SVG Version: 6.00 Build 0)  -->
<svg version="1.1" id="レイヤー_1" xmlns="http://www.w3.org/2000/svg" xmlns:xlink="http://www.w3.org/1999/xlink" x="0px"
	 y="0px" viewBox="0 0 120 60" enable-background="new 0 0 120 60" xml:space="preserve">
<g>
	<path fill="#FF0000" d="M120,35c0,13.75-11.25,25-25,25H25C11.25,60,0,48.75,0,35V25C0,11.25,11.25,0,25,0h70
		c13.75,0,25,11.25,25,25V35z"/>
</g>
<g>
	<path fill="#FFFFFF" d="M35.61,39.15v5.18H17.74V15.46h6.85v23.68H35.61z"/>
	<path fill="#FFFFFF" d="M48.37,44.33h-6.85V15.46h6.85V44.33z"/>
	<path fill="#FFFFFF" d="M79.23,15.46L72.2,44.33H61.32l-7.03-28.86h7.03l3.92,16.24c0.7,2.85,1.07,4.59,1.59,7.47h0.37
		c0.37-2.85,0.7-4.59,1.41-7.44l3.96-16.28H79.23z"/>
	<path fill="#FFFFFF" d="M102.84,39.33v5H85.15V15.46h17.35v5H91.81v6.85h9.62v4.81h-9.62v7.22H102.84z"/>
</g>
<g>
</g>
<g>
</g>
<g>
</g>
<g>
</g>
<g>
</g>
<g>
</g>
<g>
</g>
<g>
</g>
<g>
</g>
<g>
</g>
<g>
</g>
<g>
</g>
<g>
</g>
<g>
</g>
<g>
</g>
</svg>
