<?xml version="1.0" encoding="utf-8"?>
<!-- Generator: Adobe Illustrator 24.3.0, SVG Export Plug-In . SVG Version: 6.00 Build 0)  -->
<svg version="1.1" id="レイヤー_1" xmlns="http://www.w3.org/2000/svg" xmlns:xlink="http://www.w3.org/1999/xlink" x="0px"
	 y="0px" viewBox="0 0 1141 100" enable-background="new 0 0 1141 100" xml:space="preserve">
<g>
	<path fill="#FF3399" d="M160.52,37.83l-0.76,43.42h-5.66l0.51-28.99l-33.61,27.3l-3.66-4.29l37.4-30.22l0.13-7.21H116.7l0.1-5.72
		h38.16l0.15-8.45h5.66l-0.15,8.45h13l-0.1,5.72H160.52z"/>
	<path fill="#FF3399" d="M208.66,81.25h-6.37l0.1-5.65h6.37c13.77,0,21.72-9.36,21.92-20.86l0.36-20.8h-49.16l0.1-5.59h54.82
		l-0.46,26.45C236.09,69.09,226.49,81.25,208.66,81.25z"/>
	<path fill="#FF3399" d="M266.22,31.2c-7.66,0-12.09,7.02-12.18,12.28l-0.66,37.76h-5.47l0.66-37.76
		c0.15-8.51,7.33-17.87,17.75-17.87h1.16l-0.1,5.59H266.22z M299.84,36.47c0.93,2.27,1.4,4.68,1.36,7.02l-0.66,37.76h-5.4
		l0.66-37.76c0.09-5.26-4.1-12.35-11.75-12.35h-1.16l0.1-5.59h1.16c2.51,0,4.88,0.58,6.92,1.56c0.96-3.12,3.83-5.39,7.17-5.39
		c4.12,0,7.41,3.31,7.33,7.47C305.51,32.7,303.08,35.62,299.84,36.47z M298.17,25.42c-2.06,0-3.76,1.75-3.8,3.77
		c-0.04,2.14,1.61,3.77,3.67,3.77c2.12,0,3.76-1.62,3.8-3.77C301.87,27.17,300.29,25.42,298.17,25.42z"/>
	<path fill="#FF3399" d="M316.39,79.95l0.1-5.46h46.91l0.58-33.02c0.09-5-3.71-8.64-7.96-8.64h-38.87l0.1-5.52h39.12
		c6.18,0,13.16,5.33,13.01,13.91l-0.68,38.74H316.39z"/>
	<path fill="#FF3399" d="M388.99,56.74l0.17-9.81h5.53l-0.17,9.81H388.99z"/>
	<path fill="#FF3399" d="M423.98,56.94l-8.13-27.95l5.31-1.88l8.2,27.88L423.98,56.94z M465.34,31.98L465,51.67
		c-0.26,14.75-9.78,29.57-30.31,29.57h-15.31l0.1-5.65h15.38c16.28,0,24.33-11.31,24.55-23.92l0.44-25.35h10.81l-0.1,5.65H465.34z"
		/>
	<path fill="#FF3399" d="M478.77,55.18l0.1-5.78h50.13l-0.1,5.78H478.77z"/>
	<path fill="#FF3399" d="M566.71,81.25h-24.32l0.1-5.65h24.26c19.37,0,24.74-9.23,25-24.05l0.04-2.4h5.6l-0.04,2.4
		C597.06,68.12,590.39,81.25,566.71,81.25z M568.63,56.48l-24.41-2.67l0.61-5.33l24.4,2.73L568.63,56.48z M568.97,37.05l-24.41-2.66
		l0.61-5.26l24.41,2.6L568.97,37.05z"/>
	<path fill="#FF3399" d="M642.68,71.37h-12.35l0.09-5.2h12.23c6.05,0,10.49-3.7,10.6-9.94c0.11-6.17-4.14-9.94-10.25-9.94h-19.05
		l-0.61,34.9h-5.21l0.61-34.9h-6.43l0.09-5.26h6.43l0.1-5.85h5.21l-0.1,5.85h19.05c8.94,0,15.46,6.37,15.31,15.21
		C658.23,65.13,651.63,71.37,642.68,71.37z"/>
	<path fill="#FF3399" d="M670.24,81.25l0.1-5.72h9.91l0.9-51.47h5.53l-1,57.19H670.24z M709.94,81.25h-14.29l1-57.19h5.53l-0.9,51.6
		h8.62c8.82,0,11.95-6.37,12.04-11.57l0.13-7.34h5.6l-0.13,7.41C727.39,72.93,721.58,81.25,709.94,81.25z"/>
	<path fill="#FF3399" d="M744.14,56.74l0.17-9.81h5.53l-0.17,9.81H744.14z"/>
	<path fill="#FF3399" d="M816.39,49.66L798.37,61.1l-0.35,20.15h-5.66l0.29-16.51l-22.25,14.17l-3.01-4.74l45.42-28.73
		c1.43-0.91,2.43-2.73,2.46-4.68c0.06-3.18-2.47-5.78-5.63-5.78h-36.81l0.1-5.65h20.14l0.1-5.65h5.66l-0.1,5.65h10.94
		c6.31,0,11.3,5.13,11.19,11.44C820.79,44.52,818.93,48.03,816.39,49.66z M819.67,79.56l-13.65-17.74l4.5-3.57l13.59,17.68
		L819.67,79.56z"/>
	<path fill="#FF3399" d="M840.26,60.38l-2.48-20.02l5.03-0.71l2.48,20.02L840.26,60.38z M855.79,81.18h-6.63l0.09-5.39h6.56
		c15.38,0,19.49-7.15,19.7-18.78l0.34-19.69h5.34L880.86,57C880.63,70.39,874.84,81.18,855.79,81.18z M855.64,60.38l-2.48-20.02
		l5.03-0.71l2.55,20.02L855.64,60.38z"/>
	<path fill="#FF3399" d="M909.83,52.19l-0.51,28.99h-5.66l1-57.52h5.66l-0.4,23.07h39.06l-0.1,5.46H909.83z"/>
	<path fill="#FF3399" d="M978.88,80.92l0.09-5.46h28.18l0.57-32.82c0.1-5.91-1.44-9.81-9.48-9.81h-25.16
		c-5.28,0-7.83,2.34-7.92,7.86l-0.19,11.05h-5.6l0.2-11.18c0.14-8.25,5.32-13.32,13.55-13.32h25.42c11,0,14.95,6.3,14.79,15.47
		l-0.67,38.22H978.88z"/>
	<path fill="#FF3399" d="M1025.65,55.18l0.1-5.78h50.13l-0.1,5.78H1025.65z"/>
	<path fill="#FF3399" d="M1110.9,81.25h-5.47l0.1-5.65h5.53c19.24,0,23.71-8.84,23.95-22.81l0.38-21.71h-33.65l-10.98,24.37
		l-5.11-2.08l12.59-27.95h42.85l-0.48,27.3C1140.33,69.03,1134.26,81.25,1110.9,81.25z"/>
</g>
<g>
	<g>
		<path fill="#FF3399" d="M55.33,88.85c-0.93,0.75-1.86,1.35-2.79,1.79c-0.64,0.07-1.91,0.16-1.91,0.16v-7.45
			c-1.55-1.27-3.12-2.59-4.69-3.95v11.49c-0.65-0.04-1.3-0.09-1.94-0.16c-0.95-0.45-1.89-1.05-2.82-1.81
			c-3.05-2.48-5.9-6.67-8.09-12.06h9.96c-1.7-1.52-3.4-3.08-5.1-4.69h-6.37c-0.76-2.54-1.38-5.29-1.85-8.16
			c-1.82-1.89-3.59-3.78-5.31-5.66c0.39,4.91,1.18,9.57,2.36,13.83H14.99c-3.3-5.34-5.35-11.52-5.74-18.16h11.32
			c0,0-2.65-3.09-3.91-4.69H9.2c0.16-2.68,0.61-5.33,1.3-7.88c-1.57-2.15-3.05-4.27-4.41-6.34c-2.02,5.14-3.15,10.74-3.15,16.6
			c0,25.05,20.31,45.35,45.36,45.35c5.86,0,11.46-1.12,16.6-3.15c-2.76-1.82-5.6-3.84-8.49-6.02
			C56.04,88.23,55.69,88.55,55.33,88.85z M20.6,79.35c-0.79-0.79-1.55-1.63-2.27-2.49h9.99c0.74,2.03,1.56,3.96,2.48,5.74
			c1.08,2.09,2.28,3.98,3.58,5.67C29.16,86.28,24.48,83.23,20.6,79.35z"/>
		<path fill="#FF3399" d="M15.35,20.56c0.99,1.77,2.12,3.62,3.35,5.52c0.62-0.72,1.25-1.43,1.92-2.1c3.89-3.88,8.58-6.94,13.8-8.93
			c-2.43,3.12-4.47,6.98-6.09,11.41h-9.35c0.96,1.47,2,2.97,3.1,4.49h4.75c0,0-0.79,3.3-1.12,4.94c1.24,1.6,2.54,3.21,3.9,4.84
			c0.49-3.41,1.17-6.65,2.07-9.59h14.28v18.16h-8.9c1.45,1.57,2.93,3.13,4.45,4.69h4.46v4.39c1.56,1.49,3.12,2.96,4.69,4.38v-8.77
			h17.32c-0.19,6.63-1.21,12.81-2.85,18.16H61.5c2.25,1.81,4.48,3.52,6.65,5.11c0.05-0.14,0.12-0.27,0.17-0.42h9.93
			c-0.72,0.86-1.48,1.69-2.27,2.49c-0.67,0.67-1.37,1.31-2.09,1.93c1.9,1.24,3.74,2.36,5.51,3.35c8.75-8.26,14.23-19.97,14.23-32.95
			c0-25.03-20.29-45.32-45.33-45.33C35.31,6.34,23.61,11.81,15.35,20.56z M81.62,72.17h-11.8c1.52-5.49,2.45-11.64,2.62-18.16h14.91
			C86.96,60.65,84.92,66.84,81.62,72.17z M81.61,31.16c3.3,5.34,5.35,11.52,5.74,18.16H72.42c-0.18-6.52-1.08-12.68-2.6-18.16H81.61
			z M75.99,23.98c0.79,0.79,1.55,1.63,2.27,2.49h-9.99c-0.74-2.03-1.56-3.96-2.48-5.74c-1.08-2.09-2.28-3.98-3.58-5.67
			C67.43,17.05,72.11,20.11,75.99,23.98z M50.63,12.59c0.64,0.04,1.29,0.09,1.92,0.16c0.94,0.45,1.86,1.04,2.79,1.79
			c3.02,2.45,5.84,6.6,8,11.94H50.63V12.59z M50.63,31.16h14.27c1.61,5.35,2.61,11.54,2.8,18.16H50.63V31.16z M41.23,14.53
			c0.93-0.75,1.85-1.35,2.79-1.79c0.64-0.07,1.28-0.12,1.92-0.16v13.88H33.25c0.51-1.26,1.05-2.48,1.63-3.61
			C36.74,19.25,38.93,16.41,41.23,14.53z"/>
		<path fill="#FF3399" d="M98.25,82.86c-0.94-2.53-2.24-5.27-3.84-8.17c-1.09,2.18-2.33,4.27-3.71,6.26c0.7,1.45,1.29,2.8,1.75,4.06
			c0.94,2.53,1.37,4.64,1.36,6.05c0,0.67-0.09,1.17-0.21,1.51c-0.12,0.34-0.24,0.52-0.38,0.66c-0.14,0.14-0.32,0.26-0.66,0.38
			c-0.34,0.11-0.84,0.2-1.51,0.2c-1.33,0.01-3.29-0.37-5.63-1.21c-2.35-0.83-5.08-2.11-8.09-3.77
			c-10.3-5.72-23.67-16.11-36.86-29.31c-13.2-13.19-23.59-26.56-29.31-36.86c-1.67-3-2.94-5.74-3.77-8.09
			c-0.84-2.34-1.21-4.3-1.21-5.63c0-0.67,0.09-1.17,0.21-1.51c0.12-0.34,0.24-0.51,0.38-0.66c0.15-0.14,0.32-0.27,0.66-0.38
			c0.34-0.11,0.84-0.21,1.51-0.21c1.41-0.01,3.52,0.42,6.04,1.36c1.26,0.47,2.62,1.05,4.08,1.75c1.99-1.38,4.08-2.62,6.26-3.71
			c-2.91-1.6-5.65-2.91-8.19-3.85C14.17,0.65,11.47,0.01,8.95,0c-1.2,0-2.37,0.15-3.5,0.53c-1.12,0.38-2.19,1-3.05,1.87
			C1.53,3.27,0.91,4.33,0.53,5.45C0.15,6.57,0,7.75,0,8.94c0.01,2.39,0.58,4.92,1.57,7.7c0.99,2.78,2.4,5.79,4.2,9.02
			c6.15,11.04,16.82,24.69,30.34,38.23c13.53,13.53,27.19,24.19,38.22,30.34c3.23,1.8,6.25,3.21,9.02,4.2
			c2.78,0.98,5.32,1.56,7.7,1.56c1.2,0,2.37-0.15,3.49-0.53c1.12-0.38,2.18-1,3.05-1.86c0.87-0.87,1.49-1.94,1.87-3.05
			c0.38-1.12,0.53-2.3,0.53-3.49C99.99,88.53,99.35,85.83,98.25,82.86z"/>
	</g>
</g>
<g>
</g>
<g>
</g>
<g>
</g>
<g>
</g>
<g>
</g>
<g>
</g>
<g>
</g>
<g>
</g>
<g>
</g>
<g>
</g>
<g>
</g>
<g>
</g>
<g>
</g>
<g>
</g>
<g>
</g>
</svg>
